<?xml version="1.0" encoding="UTF-8"?>
<svg width="800" height="600" viewBox="0 0 800 600" fill="none" xmlns="http://www.w3.org/2000/svg">
  <rect width="800" height="600" rx="24" fill="#EFF6FF"/>
  <g transform="translate(80,80)">
    <rect x="0" y="0" width="360" height="220" rx="12" fill="#ffffff" stroke="#DBEAFE" stroke-width="2"/>
    <rect x="20" y="24" width="320" height="14" rx="6" fill="#60A5FA" />
    <rect x="20" y="52" width="260" height="12" rx="6" fill="#BFDBFE" />
    <rect x="20" y="74" width="300" height="10" rx="5" fill="#E0F2FE" />

    <rect x="400" y="0" width="240" height="220" rx="12" fill="#ffffff" stroke="#E9E9F0" stroke-width="2"/>
    <circle cx="520" cy="60" r="36" fill="#7C3AED" />
    <rect x="460" y="120" width="120" height="14" rx="6" fill="#C7B2FF" />
    <rect x="460" y="144" width="160" height="10" rx="5" fill="#EEE7FF" />
  </g>
  <g transform="translate(80,340)">
    <rect x="0" y="0" width="680" height="180" rx="12" fill="#fff" stroke="#E6EEF8" stroke-width="2"/>
    <rect x="20" y="20" width="200" height="120" rx="8" fill="#DBEAFE" />
    <rect x="240" y="24" width="420" height="18" rx="8" fill="#60A5FA" />
    <rect x="240" y="54" width="360" height="12" rx="6" fill="#BFDBFE" />
  </g>
  <text x="120" y="48" font-family="Inter, Roboto, Arial, sans-serif" font-size="20" fill="#1E293B">Placeholder illustration</text>
</svg>
